<svg xmlns="http://www.w3.org/2000/svg" xmlns:xlink="http://www.w3.org/1999/xlink" width="1280" zoomAndPan="magnify" viewBox="0 0 960 540.000001" height="720" preserveAspectRatio="xMidYMid meet" version="1.0"><defs><clipPath id="d167ef586f"><path d="M 462 199 L 476 199 L 476 247 L 462 247 Z M 462 199 " clip-rule="nonzero"/></clipPath><clipPath id="b7eb0d1094"><path d="M 339.183594 150.097656 L 575.625 129.777344 L 597.867188 388.59375 L 361.425781 408.914062 Z M 339.183594 150.097656 " clip-rule="nonzero"/></clipPath><clipPath id="7b81fc4753"><path d="M 339.183594 150.097656 L 575.625 129.777344 L 597.867188 388.59375 L 361.425781 408.914062 Z M 339.183594 150.097656 " clip-rule="nonzero"/></clipPath><clipPath id="7971921edb"><path d="M 433 263 L 461 263 L 461 302 L 433 302 Z M 433 263 " clip-rule="nonzero"/></clipPath><clipPath id="34041750a5"><path d="M 339.183594 150.097656 L 575.625 129.777344 L 597.867188 388.59375 L 361.425781 408.914062 Z M 339.183594 150.097656 " clip-rule="nonzero"/></clipPath><clipPath id="33276442ed"><path d="M 339.183594 150.097656 L 575.625 129.777344 L 597.867188 388.59375 L 361.425781 408.914062 Z M 339.183594 150.097656 " clip-rule="nonzero"/></clipPath><clipPath id="5fa61aef1c"><path d="M 464 263 L 484 263 L 484 289 L 464 289 Z M 464 263 " clip-rule="nonzero"/></clipPath><clipPath id="56919e7fb2"><path d="M 339.183594 150.097656 L 575.625 129.777344 L 597.867188 388.59375 L 361.425781 408.914062 Z M 339.183594 150.097656 " clip-rule="nonzero"/></clipPath><clipPath id="9a8609619f"><path d="M 339.183594 150.097656 L 575.625 129.777344 L 597.867188 388.59375 L 361.425781 408.914062 Z M 339.183594 150.097656 " clip-rule="nonzero"/></clipPath><clipPath id="23a9094062"><path d="M 488 252 L 514 252 L 514 289 L 488 289 Z M 488 252 " clip-rule="nonzero"/></clipPath><clipPath id="975dcafd0a"><path d="M 339.183594 150.097656 L 575.625 129.777344 L 597.867188 388.59375 L 361.425781 408.914062 Z M 339.183594 150.097656 " clip-rule="nonzero"/></clipPath><clipPath id="13233a0793"><path d="M 339.183594 150.097656 L 575.625 129.777344 L 597.867188 388.59375 L 361.425781 408.914062 Z M 339.183594 150.097656 " clip-rule="nonzero"/></clipPath><clipPath id="19347ea88d"><path d="M 401 181 L 547 181 L 547 336 L 401 336 Z M 401 181 " clip-rule="nonzero"/></clipPath><clipPath id="ca513817f9"><path d="M 339.183594 150.097656 L 575.625 129.777344 L 597.867188 388.59375 L 361.425781 408.914062 Z M 339.183594 150.097656 " clip-rule="nonzero"/></clipPath><clipPath id="1040e80e20"><path d="M 339.183594 150.097656 L 575.625 129.777344 L 597.867188 388.59375 L 361.425781 408.914062 Z M 339.183594 150.097656 " clip-rule="nonzero"/></clipPath><clipPath id="faccff257f"><path d="M 429 323 L 475 323 L 475 399 L 429 399 Z M 429 323 " clip-rule="nonzero"/></clipPath><clipPath id="e94caaf933"><path d="M 339.183594 150.097656 L 575.625 129.777344 L 597.867188 388.59375 L 361.425781 408.914062 Z M 339.183594 150.097656 " clip-rule="nonzero"/></clipPath><clipPath id="16e4388892"><path d="M 339.183594 150.097656 L 575.625 129.777344 L 597.867188 388.59375 L 361.425781 408.914062 Z M 339.183594 150.097656 " clip-rule="nonzero"/></clipPath><clipPath id="818f5a0672"><path d="M 494 318 L 545 318 L 545 396 L 494 396 Z M 494 318 " clip-rule="nonzero"/></clipPath><clipPath id="3e75528ac3"><path d="M 339.183594 150.097656 L 575.625 129.777344 L 597.867188 388.59375 L 361.425781 408.914062 Z M 339.183594 150.097656 " clip-rule="nonzero"/></clipPath><clipPath id="032c9d6936"><path d="M 339.183594 150.097656 L 575.625 129.777344 L 597.867188 388.59375 L 361.425781 408.914062 Z M 339.183594 150.097656 " clip-rule="nonzero"/></clipPath><clipPath id="58557e275b"><path d="M 348 137 L 584 137 L 584 336 L 348 336 Z M 348 137 " clip-rule="nonzero"/></clipPath><clipPath id="44d5117283"><path d="M 339.183594 150.097656 L 575.625 129.777344 L 597.867188 388.59375 L 361.425781 408.914062 Z M 339.183594 150.097656 " clip-rule="nonzero"/></clipPath><clipPath id="5753adff28"><path d="M 339.183594 150.097656 L 575.625 129.777344 L 597.867188 388.59375 L 361.425781 408.914062 Z M 339.183594 150.097656 " clip-rule="nonzero"/></clipPath><clipPath id="2e102fe0be"><path d="M 370 199 L 400 199 L 400 220 L 370 220 Z M 370 199 " clip-rule="nonzero"/></clipPath><clipPath id="614bac1f58"><path d="M 339.183594 150.097656 L 575.625 129.777344 L 597.867188 388.59375 L 361.425781 408.914062 Z M 339.183594 150.097656 " clip-rule="nonzero"/></clipPath><clipPath id="36689d1362"><path d="M 339.183594 150.097656 L 575.625 129.777344 L 597.867188 388.59375 L 361.425781 408.914062 Z M 339.183594 150.097656 " clip-rule="nonzero"/></clipPath><clipPath id="01ce987288"><path d="M 400 166 L 424 166 L 424 192 L 400 192 Z M 400 166 " clip-rule="nonzero"/></clipPath><clipPath id="3d32ed69b1"><path d="M 339.183594 150.097656 L 575.625 129.777344 L 597.867188 388.59375 L 361.425781 408.914062 Z M 339.183594 150.097656 " clip-rule="nonzero"/></clipPath><clipPath id="534f65bcac"><path d="M 339.183594 150.097656 L 575.625 129.777344 L 597.867188 388.59375 L 361.425781 408.914062 Z M 339.183594 150.097656 " clip-rule="nonzero"/></clipPath><clipPath id="f57c7ff79e"><path d="M 447 150 L 454 150 L 454 178 L 447 178 Z M 447 150 " clip-rule="nonzero"/></clipPath><clipPath id="c15067743e"><path d="M 339.183594 150.097656 L 575.625 129.777344 L 597.867188 388.59375 L 361.425781 408.914062 Z M 339.183594 150.097656 " clip-rule="nonzero"/></clipPath><clipPath id="72f76254fe"><path d="M 339.183594 150.097656 L 575.625 129.777344 L 597.867188 388.59375 L 361.425781 408.914062 Z M 339.183594 150.097656 " clip-rule="nonzero"/></clipPath><clipPath id="d42c13c4b8"><path d="M 488 141 L 497 141 L 497 174 L 488 174 Z M 488 141 " clip-rule="nonzero"/></clipPath><clipPath id="4bf0098e1b"><path d="M 339.183594 150.097656 L 575.625 129.777344 L 597.867188 388.59375 L 361.425781 408.914062 Z M 339.183594 150.097656 " clip-rule="nonzero"/></clipPath><clipPath id="5051581189"><path d="M 339.183594 150.097656 L 575.625 129.777344 L 597.867188 388.59375 L 361.425781 408.914062 Z M 339.183594 150.097656 " clip-rule="nonzero"/></clipPath><clipPath id="f11166c30a"><path d="M 522 163 L 554 163 L 554 193 L 522 193 Z M 522 163 " clip-rule="nonzero"/></clipPath><clipPath id="0f6c28f5e2"><path d="M 339.183594 150.097656 L 575.625 129.777344 L 597.867188 388.59375 L 361.425781 408.914062 Z M 339.183594 150.097656 " clip-rule="nonzero"/></clipPath><clipPath id="f01727c454"><path d="M 339.183594 150.097656 L 575.625 129.777344 L 597.867188 388.59375 L 361.425781 408.914062 Z M 339.183594 150.097656 " clip-rule="nonzero"/></clipPath><clipPath id="30eb6a30aa"><path d="M 351 251 L 383 251 L 383 258 L 351 258 Z M 351 251 " clip-rule="nonzero"/></clipPath><clipPath id="f0721731ad"><path d="M 339.183594 150.097656 L 575.625 129.777344 L 597.867188 388.59375 L 361.425781 408.914062 Z M 339.183594 150.097656 " clip-rule="nonzero"/></clipPath><clipPath id="16838fb7b9"><path d="M 339.183594 150.097656 L 575.625 129.777344 L 597.867188 388.59375 L 361.425781 408.914062 Z M 339.183594 150.097656 " clip-rule="nonzero"/></clipPath><clipPath id="1a97ab0960"><path d="M 364 288 L 396 288 L 396 305 L 364 305 Z M 364 288 " clip-rule="nonzero"/></clipPath><clipPath id="1a7366e2bb"><path d="M 339.183594 150.097656 L 575.625 129.777344 L 597.867188 388.59375 L 361.425781 408.914062 Z M 339.183594 150.097656 " clip-rule="nonzero"/></clipPath><clipPath id="d08fd6d75f"><path d="M 339.183594 150.097656 L 575.625 129.777344 L 597.867188 388.59375 L 361.425781 408.914062 Z M 339.183594 150.097656 " clip-rule="nonzero"/></clipPath><clipPath id="6cd85aeedf"><path d="M 552 218 L 584 218 L 584 228 L 552 228 Z M 552 218 " clip-rule="nonzero"/></clipPath><clipPath id="0f6957efd0"><path d="M 339.183594 150.097656 L 575.625 129.777344 L 597.867188 388.59375 L 361.425781 408.914062 Z M 339.183594 150.097656 " clip-rule="nonzero"/></clipPath><clipPath id="2327246335"><path d="M 339.183594 150.097656 L 575.625 129.777344 L 597.867188 388.59375 L 361.425781 408.914062 Z M 339.183594 150.097656 " clip-rule="nonzero"/></clipPath><clipPath id="6df6918335"><path d="M 559 270 L 578 270 L 578 275 L 559 275 Z M 559 270 " clip-rule="nonzero"/></clipPath><clipPath id="eeb8d2df18"><path d="M 339.183594 150.097656 L 575.625 129.777344 L 597.867188 388.59375 L 361.425781 408.914062 Z M 339.183594 150.097656 " clip-rule="nonzero"/></clipPath><clipPath id="90234591c8"><path d="M 339.183594 150.097656 L 575.625 129.777344 L 597.867188 388.59375 L 361.425781 408.914062 Z M 339.183594 150.097656 " clip-rule="nonzero"/></clipPath><clipPath id="253392f442"><path d="M 397 314 L 417 314 L 417 332 L 397 332 Z M 397 314 " clip-rule="nonzero"/></clipPath><clipPath id="a4ea8eb931"><path d="M 339.183594 150.097656 L 575.625 129.777344 L 597.867188 388.59375 L 361.425781 408.914062 Z M 339.183594 150.097656 " clip-rule="nonzero"/></clipPath><clipPath id="5e85ac2372"><path d="M 339.183594 150.097656 L 575.625 129.777344 L 597.867188 388.59375 L 361.425781 408.914062 Z M 339.183594 150.097656 " clip-rule="nonzero"/></clipPath><clipPath id="880448c614"><path d="M 546 298 L 573 298 L 573 311 L 546 311 Z M 546 298 " clip-rule="nonzero"/></clipPath><clipPath id="0b018967fd"><path d="M 339.183594 150.097656 L 575.625 129.777344 L 597.867188 388.59375 L 361.425781 408.914062 Z M 339.183594 150.097656 " clip-rule="nonzero"/></clipPath><clipPath id="f64305eb2d"><path d="M 339.183594 150.097656 L 575.625 129.777344 L 597.867188 388.59375 L 361.425781 408.914062 Z M 339.183594 150.097656 " clip-rule="nonzero"/></clipPath><clipPath id="c6c5632e6b"><path d="M 464 353 L 468 353 L 468 378 L 464 378 Z M 464 353 " clip-rule="nonzero"/></clipPath><clipPath id="ae3b06cf92"><path d="M 339.183594 150.097656 L 575.625 129.777344 L 597.867188 388.59375 L 361.425781 408.914062 Z M 339.183594 150.097656 " clip-rule="nonzero"/></clipPath><clipPath id="59a818fb13"><path d="M 339.183594 150.097656 L 575.625 129.777344 L 597.867188 388.59375 L 361.425781 408.914062 Z M 339.183594 150.097656 " clip-rule="nonzero"/></clipPath><clipPath id="a8b7a508ba"><path d="M 526 344 L 535 344 L 535 363 L 526 363 Z M 526 344 " clip-rule="nonzero"/></clipPath><clipPath id="7eaec0b311"><path d="M 339.183594 150.097656 L 575.625 129.777344 L 597.867188 388.59375 L 361.425781 408.914062 Z M 339.183594 150.097656 " clip-rule="nonzero"/></clipPath><clipPath id="0a3a8b0b75"><path d="M 339.183594 150.097656 L 575.625 129.777344 L 597.867188 388.59375 L 361.425781 408.914062 Z M 339.183594 150.097656 " clip-rule="nonzero"/></clipPath><clipPath id="f9c1437322"><path d="M 457 196 L 467 196 L 467 212 L 457 212 Z M 457 196 " clip-rule="nonzero"/></clipPath><clipPath id="7563c17eed"><path d="M 339.183594 150.097656 L 575.625 129.777344 L 597.867188 388.59375 L 361.425781 408.914062 Z M 339.183594 150.097656 " clip-rule="nonzero"/></clipPath><clipPath id="e1b562245d"><path d="M 339.183594 150.097656 L 575.625 129.777344 L 597.867188 388.59375 L 361.425781 408.914062 Z M 339.183594 150.097656 " clip-rule="nonzero"/></clipPath><clipPath id="0aa1b45e2f"><path d="M 467 240 L 486 240 L 486 248 L 467 248 Z M 467 240 " clip-rule="nonzero"/></clipPath><clipPath id="b4d6dc0495"><path d="M 339.183594 150.097656 L 575.625 129.777344 L 597.867188 388.59375 L 361.425781 408.914062 Z M 339.183594 150.097656 " clip-rule="nonzero"/></clipPath><clipPath id="1f6d147b01"><path d="M 339.183594 150.097656 L 575.625 129.777344 L 597.867188 388.59375 L 361.425781 408.914062 Z M 339.183594 150.097656 " clip-rule="nonzero"/></clipPath></defs><g clip-path="url(#d167ef586f)"><g clip-path="url(#b7eb0d1094)"><g clip-path="url(#7b81fc4753)"><path fill="#e2dbd2" d="M 462.914062 199.210938 C 462.863281 199.371094 462.824219 199.714844 462.808594 200.105469 C 462.792969 200.492188 462.804688 200.925781 462.84375 201.410156 C 462.878906 201.894531 462.941406 202.433594 463.003906 202.820312 C 463.066406 203.203125 463.097656 203.375 463.136719 203.5625 C 463.171875 203.753906 463.214844 203.957031 463.261719 204.175781 C 463.3125 204.394531 463.363281 204.632812 463.523438 205.277344 C 463.6875 205.917969 463.953125 206.9375 464.222656 207.953125 C 464.492188 208.96875 464.765625 209.988281 465.03125 211.007812 C 465.300781 212.03125 465.566406 213.054688 465.769531 213.828125 C 465.96875 214.605469 466.109375 215.152344 466.246094 215.722656 C 466.386719 216.296875 466.523438 216.890625 466.671875 217.507812 C 466.816406 218.125 466.964844 218.765625 467.066406 219.214844 C 467.171875 219.664062 467.246094 220 467.363281 220.476562 C 467.480469 220.953125 467.636719 221.570312 467.792969 222.335938 C 467.949219 223.101562 468.085938 224.015625 468.335938 225.730469 C 468.582031 227.445312 468.960938 229.851562 469.320312 232.226562 C 469.683594 234.605469 470.042969 236.949219 470.441406 239.25 C 470.84375 241.550781 471.371094 243.796875 471.855469 245.445312 C 472.335938 247.089844 475.730469 246.4375 475.515625 245.320312 C 475.515625 245.320312 475.40625 243.023438 475.011719 240.746094 C 474.621094 238.472656 474.136719 236.179688 473.625 233.859375 C 473.113281 231.539062 472.609375 229.183594 472.109375 226.789062 C 471.613281 224.394531 471.347656 223.394531 471.167969 222.535156 C 470.984375 221.675781 470.863281 220.953125 470.789062 220.363281 C 470.71875 219.777344 470.636719 219.335938 470.582031 219.03125 C 470.527344 218.726562 470.414062 218.058594 470.292969 217.414062 C 470.171875 216.769531 470.0625 216.144531 469.949219 215.542969 C 469.839844 214.941406 469.726562 214.363281 469.621094 213.804688 C 469.515625 213.25 469.316406 212.203125 469.109375 211.160156 C 468.902344 210.121094 468.699219 209.078125 468.492188 208.039062 C 468.289062 207 468.070312 205.964844 467.84375 204.933594 C 467.617188 203.90625 467.574219 203.683594 467.527344 203.460938 C 467.476562 203.238281 467.433594 203.035156 467.390625 202.851562 C 467.34375 202.667969 467.308594 202.503906 467.28125 202.371094 C 467.25 202.242188 467.144531 201.710938 467.039062 201.246094 C 466.933594 200.78125 466.839844 200.378906 466.753906 200.050781 C 466.664062 199.71875 466.589844 199.460938 466.53125 199.382812 C 466.472656 199.183594 462.914062 199.328125 462.914062 199.210938 Z M 462.914062 199.210938 " fill-opacity="1" fill-rule="nonzero"/></g></g></g><g clip-path="url(#7971921edb)"><g clip-path="url(#34041750a5)"><g clip-path="url(#33276442ed)"><path fill="#e2dbd2" d="M 436.992188 265.683594 C 436.933594 266.230469 437.148438 267.648438 437.59375 269.625 C 438.039062 271.601562 438.683594 274.140625 439.484375 277.242188 C 440.285156 280.34375 441.207031 284.019531 441.792969 286.429688 C 442.375 288.839844 442.558594 289.539062 442.738281 290.214844 C 442.921875 290.886719 443.097656 291.535156 443.273438 292.152344 C 443.449219 292.769531 443.628906 293.359375 443.839844 294.039062 C 444.054688 294.71875 444.300781 295.457031 444.539062 296.121094 C 444.773438 296.785156 445 297.382812 445.226562 297.910156 C 445.453125 298.4375 445.675781 298.902344 445.925781 299.332031 C 446.175781 299.757812 446.472656 300.125 446.835938 300.4375 C 447.199219 300.75 447.621094 300.992188 448.085938 301.144531 C 448.550781 301.292969 449.03125 301.347656 450.023438 301.113281 C 451.019531 300.882812 452.191406 300.25 453.253906 299.335938 C 454.320312 298.421875 455.296875 297.25 456.199219 295.824219 C 457.105469 294.394531 457.964844 292.722656 458.648438 291.011719 C 459.328125 289.304688 459.734375 287.792969 459.949219 286.289062 C 460.164062 284.785156 460.191406 283.289062 460.019531 281.816406 C 459.847656 280.339844 459.492188 278.890625 458.9375 277.53125 C 458.386719 276.171875 457.679688 274.984375 456.816406 273.855469 C 455.953125 272.726562 454.9375 271.652344 453.761719 270.640625 C 452.589844 269.632812 451.265625 268.671875 449.742188 267.746094 C 448.222656 266.820312 446.597656 265.976562 444.941406 265.261719 C 443.289062 264.546875 441.605469 263.96875 439.886719 263.578125 C 438.167969 263.1875 436.421875 263.046875 435.160156 263.035156 C 433.902344 263.027344 433.488281 266.695312 434.300781 266.785156 C 434.300781 266.785156 435.84375 267.222656 437.332031 267.601562 C 438.816406 267.980469 440.308594 268.378906 441.804688 268.859375 C 443.300781 269.339844 444.800781 269.921875 446.300781 270.621094 C 447.800781 271.324219 449.09375 272.054688 450.230469 272.828125 C 451.367188 273.601562 452.347656 274.410156 453.171875 275.257812 C 453.996094 276.105469 454.65625 276.992188 455.167969 277.898438 C 455.679688 278.804688 456.070312 279.917969 456.320312 281.070312 C 456.574219 282.226562 456.664062 283.398438 456.605469 284.601562 C 456.546875 285.804688 456.324219 287.039062 455.949219 288.296875 C 455.574219 289.558594 454.828125 291.230469 454.0625 292.640625 C 453.300781 294.046875 452.523438 295.15625 451.773438 295.972656 C 451.023438 296.789062 450.3125 297.324219 449.625 297.617188 C 448.9375 297.910156 449.195312 297.859375 449.171875 297.855469 C 449.152344 297.851562 449.152344 297.851562 449.136719 297.839844 C 449.121094 297.828125 449.082031 297.78125 449.019531 297.691406 C 448.957031 297.605469 448.820312 297.339844 448.648438 296.953125 C 448.476562 296.570312 448.289062 296.09375 448.085938 295.535156 C 447.886719 294.976562 447.667969 294.335938 447.441406 293.609375 C 447.214844 292.886719 447.054688 292.34375 446.894531 291.769531 C 446.730469 291.195312 446.574219 290.589844 446.410156 289.957031 C 446.246094 289.320312 446.089844 288.65625 445.929688 287.976562 C 445.773438 287.292969 444.957031 283.195312 444.277344 279.65625 C 443.597656 276.117188 443.03125 273.148438 442.511719 270.761719 C 441.992188 268.378906 441.5 266.578125 441.152344 265.894531 C 440.664062 264.691406 437.132812 266.199219 436.992188 265.683594 Z M 436.992188 265.683594 " fill-opacity="1" fill-rule="nonzero"/></g></g></g><g clip-path="url(#5fa61aef1c)"><g clip-path="url(#56919e7fb2)"><g clip-path="url(#9a8609619f)"><path fill="#e2dbd2" d="M 476.363281 263.828125 C 476.042969 263.878906 475.375 264.152344 474.546875 264.566406 C 473.71875 264.980469 472.785156 265.550781 471.789062 266.296875 C 470.792969 267.042969 469.792969 267.992188 468.859375 269.179688 C 467.925781 270.363281 467.105469 271.800781 466.542969 273.152344 C 465.980469 274.5 465.628906 275.558594 465.34375 276.566406 C 465.0625 277.578125 464.851562 278.535156 464.714844 279.445312 C 464.578125 280.355469 464.515625 281.222656 464.539062 282.046875 C 464.5625 282.867188 464.675781 283.652344 464.863281 284.320312 C 465.054688 284.988281 465.308594 285.539062 465.660156 286.03125 C 466.011719 286.527344 466.46875 286.933594 467.007812 287.222656 C 467.546875 287.511719 468.128906 287.660156 468.707031 287.683594 C 469.285156 287.703125 469.851562 287.628906 470.394531 287.472656 C 470.941406 287.316406 471.46875 287.09375 471.988281 286.808594 C 472.503906 286.523438 473.011719 286.175781 473.5 285.761719 C 473.984375 285.351562 474.460938 284.878906 474.914062 284.339844 C 475.371094 283.800781 475.8125 283.199219 476.1875 282.609375 C 476.566406 282.015625 476.859375 281.46875 477.125 280.914062 C 477.390625 280.363281 477.621094 279.800781 477.824219 279.234375 C 478.023438 278.667969 478.191406 278.097656 478.332031 277.519531 C 478.472656 276.945312 478.597656 276.371094 478.691406 275.78125 C 478.78125 275.191406 478.863281 274.5625 478.925781 273.898438 C 478.984375 273.230469 479.027344 272.527344 479.058594 271.777344 C 479.09375 271.027344 479.113281 270.238281 479.125 269.402344 C 479.136719 268.570312 479.136719 267.691406 479.144531 267.207031 C 479.152344 266.722656 479.15625 266.6875 479.160156 266.699219 C 479.160156 266.707031 479.144531 266.773438 479.082031 266.933594 C 479.019531 267.089844 478.800781 267.40625 478.0625 267.710938 C 477.320312 268.015625 476.445312 267.730469 476.34375 267.628906 C 476.242188 267.527344 476.273438 267.632812 476.5 268.398438 C 476.722656 269.164062 477.003906 270.425781 477.300781 272.144531 C 477.597656 273.863281 477.910156 276.019531 478.261719 278.605469 C 478.613281 281.1875 479.101562 284.1875 479.65625 286.628906 C 480.210938 289.074219 483.867188 288.554688 483.632812 286.902344 C 483.632812 286.902344 483.566406 283.539062 483.117188 280.640625 C 482.667969 277.746094 482.183594 275.28125 481.734375 273.226562 C 481.285156 271.175781 480.871094 269.53125 480.496094 268.265625 C 480.121094 267.003906 479.738281 266.066406 479.199219 265.386719 C 478.65625 264.707031 478.480469 264.578125 477.515625 264.53125 C 476.550781 264.488281 475.984375 264.933594 475.785156 265.273438 C 475.585938 265.613281 475.515625 265.851562 475.476562 266.0625 C 475.441406 266.269531 475.425781 266.46875 475.429688 266.667969 C 475.429688 266.863281 475.480469 267.753906 475.5 268.589844 C 475.523438 269.421875 475.53125 270.207031 475.523438 270.941406 C 475.519531 271.671875 475.496094 272.355469 475.460938 272.988281 C 475.425781 273.617188 475.375 274.195312 475.308594 274.722656 C 475.246094 275.25 475.160156 275.734375 475.0625 276.214844 C 474.964844 276.699219 474.84375 277.167969 474.699219 277.628906 C 474.554688 278.089844 474.398438 278.542969 474.207031 278.984375 C 474.019531 279.425781 473.800781 279.855469 473.554688 280.269531 C 473.3125 280.683594 472.960938 281.207031 472.617188 281.652344 C 472.273438 282.101562 471.925781 282.472656 471.59375 282.785156 C 471.257812 283.09375 470.933594 283.34375 470.621094 283.535156 C 470.308594 283.730469 470.015625 283.875 469.734375 283.972656 C 469.453125 284.070312 469.199219 284.121094 469.03125 284.136719 C 468.859375 284.148438 468.769531 284.132812 468.734375 284.121094 C 468.699219 284.105469 468.683594 284.09375 468.644531 284.042969 C 468.605469 283.992188 468.546875 283.867188 468.472656 283.652344 C 468.398438 283.4375 468.3125 283.011719 468.28125 282.515625 C 468.253906 282.023438 468.28125 281.445312 468.382812 280.785156 C 468.484375 280.125 468.648438 279.390625 468.894531 278.582031 C 469.140625 277.777344 469.464844 276.902344 469.851562 275.988281 C 470.234375 275.070312 470.878906 273.839844 471.574219 272.894531 C 472.269531 271.953125 473.011719 271.195312 473.777344 270.5625 C 474.546875 269.933594 475.324219 269.382812 476.089844 268.875 C 476.855469 268.371094 477.585938 267.859375 477.914062 267.503906 C 478.535156 266.949219 476.070312 264.03125 476.363281 263.828125 Z M 476.363281 263.828125 " fill-opacity="1" fill-rule="nonzero"/></g></g></g><g clip-path="url(#23a9094062)"><g clip-path="url(#975dcafd0a)"><g clip-path="url(#13233a0793)"><path fill="#e2dbd2" d="M 506.878906 263.683594 C 506.316406 263.695312 505.171875 264.046875 503.941406 264.617188 C 502.710938 265.183594 501.425781 265.941406 500.121094 266.863281 C 498.8125 267.785156 497.519531 268.851562 496.28125 270.054688 C 495.039062 271.253906 493.882812 272.578125 492.945312 273.886719 C 492.007812 275.195312 491.292969 276.367188 490.710938 277.484375 C 490.132812 278.605469 489.695312 279.671875 489.386719 280.691406 C 489.078125 281.710938 488.910156 282.691406 488.90625 283.636719 C 488.898438 284.582031 489.0625 285.484375 489.59375 286.414062 C 490.128906 287.34375 490.679688 287.832031 491.316406 288.195312 C 491.949219 288.5625 492.640625 288.800781 493.359375 288.898438 C 494.078125 289 494.8125 288.972656 495.546875 288.839844 C 496.28125 288.710938 497.019531 288.476562 497.703125 288.191406 C 498.390625 287.902344 499.003906 287.558594 499.59375 287.132812 C 500.1875 286.710938 500.757812 286.210938 501.304688 285.636719 C 501.855469 285.058594 502.386719 284.410156 502.894531 283.679688 C 503.402344 282.949219 503.890625 282.144531 504.335938 281.3125 C 504.777344 280.480469 505.15625 279.640625 505.511719 278.757812 C 505.863281 277.878906 506.183594 276.953125 506.476562 275.984375 C 506.769531 275.019531 507.035156 274.007812 507.277344 272.953125 C 507.515625 271.902344 507.738281 270.808594 507.882812 270.015625 C 508.027344 269.222656 508.113281 268.75 508.195312 268.253906 C 508.277344 267.757812 508.355469 267.242188 508.433594 266.703125 C 508.511719 266.164062 508.585938 265.605469 508.660156 265.023438 C 508.734375 264.441406 508.804688 263.839844 508.855469 263.078125 C 508.910156 262.316406 508.871094 261.300781 508.757812 260.128906 C 508.640625 258.953125 508.488281 257.691406 508.316406 256.460938 C 508.148438 255.226562 507.984375 254.128906 507.867188 253.304688 C 507.746094 252.476562 507.699219 252.082031 506.105469 253.296875 C 504.515625 254.515625 504.953125 256.6875 505.371094 259.085938 C 505.792969 261.488281 506.15625 264.109375 506.519531 266.925781 C 506.882812 269.738281 507.257812 272.730469 507.667969 275.882812 C 508.078125 279.035156 508.660156 282.308594 509.292969 284.792969 C 509.925781 287.277344 513.714844 286.640625 513.433594 284.960938 C 513.433594 284.960938 513.285156 281.542969 512.753906 278.328125 C 512.226562 275.113281 511.652344 272.046875 511.105469 269.136719 C 510.5625 266.222656 510.054688 263.472656 509.570312 260.90625 C 509.082031 258.339844 508.621094 255.964844 508.136719 253.792969 C 507.652344 251.621094 504.019531 252.40625 504.113281 253.070312 C 504.207031 253.730469 504.351562 254.675781 504.523438 255.8125 C 504.699219 256.949219 504.871094 258.171875 505.015625 259.351562 C 505.160156 260.527344 505.246094 261.539062 505.257812 262.222656 C 505.269531 262.90625 505.210938 263.433594 505.140625 264.007812 C 505.074219 264.582031 505 265.132812 504.929688 265.664062 C 504.855469 266.195312 504.78125 266.707031 504.703125 267.195312 C 504.628906 267.683594 504.558594 268.15625 504.480469 268.601562 C 504.40625 269.042969 504.207031 270.121094 503.992188 271.136719 C 503.773438 272.15625 503.53125 273.121094 503.277344 274.035156 C 503.023438 274.953125 502.75 275.8125 502.457031 276.621094 C 502.164062 277.429688 501.847656 278.183594 501.503906 278.882812 C 501.164062 279.578125 500.753906 280.3125 500.335938 280.960938 C 499.917969 281.605469 499.5 282.167969 499.085938 282.648438 C 498.675781 283.125 498.261719 283.519531 497.867188 283.839844 C 497.472656 284.164062 497.085938 284.410156 496.71875 284.597656 C 496.351562 284.78125 495.820312 284.984375 495.355469 285.101562 C 494.890625 285.222656 494.5 285.273438 494.1875 285.265625 C 493.871094 285.253906 493.617188 285.203125 493.398438 285.109375 C 493.183594 285.015625 492.976562 284.867188 492.851562 284.78125 C 492.726562 284.695312 492.714844 284.5625 492.679688 284.136719 C 492.640625 283.710938 492.6875 283.167969 492.839844 282.515625 C 492.996094 281.859375 493.285156 281.101562 493.714844 280.253906 C 494.144531 279.40625 494.722656 278.480469 495.441406 277.488281 C 496.160156 276.496094 497.132812 275.367188 498.203125 274.34375 C 499.273438 273.316406 500.425781 272.390625 501.605469 271.566406 C 502.785156 270.738281 503.945312 270.015625 505.027344 269.386719 C 506.113281 268.761719 507.070312 268.210938 507.433594 267.886719 C 508.238281 267.398438 506.4375 263.847656 506.878906 263.683594 Z M 506.878906 263.683594 " fill-opacity="1" fill-rule="nonzero"/></g></g></g><g clip-path="url(#19347ea88d)"><g clip-path="url(#ca513817f9)"><g clip-path="url(#1040e80e20)"><path fill="#e2dbd2" d="M 471.464844 182.871094 C 470.734375 182.210938 468.839844 181.558594 466.621094 181.503906 C 464.402344 181.449219 461.898438 181.878906 459.078125 182.722656 C 456.253906 183.566406 453.085938 184.792969 449.628906 186.324219 C 446.175781 187.855469 442.800781 189.554688 439.59375 191.421875 C 436.382812 193.285156 433.339844 195.320312 430.464844 197.519531 C 427.59375 199.722656 424.882812 202.085938 421.332031 205.726562 C 417.78125 209.367188 413.8125 214.328125 410.65625 219.503906 C 407.496094 224.683594 405.160156 230.082031 403.652344 235.691406 C 402.144531 241.300781 401.464844 247.113281 401.578125 253.324219 C 401.691406 259.535156 402.636719 266.082031 404.472656 272.675781 C 406.308594 279.265625 409.023438 285.902344 412.621094 292.582031 C 416.21875 299.257812 420.6875 305.984375 425.566406 311.851562 C 430.441406 317.71875 435.257812 322.042969 440.328125 325.472656 C 445.402344 328.902344 450.726562 331.425781 456.300781 333.035156 C 461.875 334.644531 467.679688 335.328125 474.300781 335.050781 C 480.921875 334.773438 487.910156 333.628906 494.480469 331.699219 C 501.046875 329.769531 507.1875 327.0625 512.890625 323.566406 C 518.597656 320.070312 523.859375 315.796875 528.421875 311.046875 C 532.984375 306.300781 536.617188 301.339844 539.445312 296.007812 C 542.269531 290.679688 544.28125 284.988281 545.476562 278.949219 C 546.671875 272.910156 547.058594 266.527344 546.417969 259.472656 C 545.78125 252.417969 544.03125 245.132812 541.34375 238.074219 C 538.65625 231.015625 535.027344 224.1875 530.472656 217.589844 C 525.917969 210.996094 520.429688 204.640625 514.445312 199.40625 C 508.457031 194.171875 502.679688 190.640625 496.855469 188.027344 C 491.03125 185.414062 485.15625 183.738281 479.246094 182.84375 C 473.335938 181.953125 467.351562 182.011719 462.996094 182.839844 C 458.640625 183.664062 459.125 187.140625 462.011719 186.738281 C 462.011719 186.738281 467.730469 186.375 473.269531 186.320312 C 478.804688 186.261719 484.371094 187.121094 489.914062 189 C 495.457031 190.878906 501.003906 193.652344 506.515625 197.308594 C 512.023438 200.960938 517.929688 206.949219 522.960938 213.195312 C 527.996094 219.441406 532.113281 225.890625 535.316406 232.542969 C 538.515625 239.195312 540.804688 246.058594 542.1875 253.121094 C 543.570312 260.179688 543.722656 266.472656 543.105469 272.445312 C 542.488281 278.421875 541.097656 284.035156 538.941406 289.308594 C 536.78125 294.578125 533.859375 299.515625 530.148438 304.117188 C 526.441406 308.722656 521.667969 313.324219 516.492188 317.167969 C 511.3125 321.007812 505.71875 324.101562 499.707031 326.453125 C 493.695312 328.804688 487.25 330.410156 480.378906 331.265625 C 473.503906 332.121094 467.894531 332.042969 462.515625 331.105469 C 457.136719 330.167969 451.980469 328.371094 447.039062 325.703125 C 442.09375 323.039062 437.355469 319.492188 432.835938 315.074219 C 428.3125 310.65625 423.402344 304.070312 419.328125 297.53125 C 415.257812 290.992188 412.066406 284.527344 409.730469 278.144531 C 407.398438 271.765625 405.933594 265.457031 405.320312 259.21875 C 404.707031 252.980469 404.828125 247.34375 405.738281 241.921875 C 406.644531 236.503906 408.332031 231.277344 410.808594 226.242188 C 413.289062 221.207031 416.558594 216.347656 420.640625 211.660156 C 424.726562 206.976562 427.199219 204.628906 429.851562 202.417969 C 432.503906 200.207031 435.320312 198.160156 438.300781 196.265625 C 441.28125 194.371094 444.425781 192.636719 447.734375 191.058594 C 451.042969 189.480469 454.390625 188.222656 457.308594 187.359375 C 460.230469 186.492188 462.691406 186.015625 464.65625 185.863281 C 466.621094 185.710938 468.070312 185.820312 468.589844 185.761719 C 469.738281 186.042969 470.835938 182.527344 471.464844 182.871094 Z M 471.464844 182.871094 " fill-opacity="1" fill-rule="nonzero"/></g></g></g><g clip-path="url(#faccff257f)"><g clip-path="url(#e94caaf933)"><g clip-path="url(#16e4388892)"><path fill="#e2dbd2" d="M 441.992188 323.425781 C 441.328125 324.324219 440.261719 327.5625 439.195312 332.324219 C 438.128906 337.082031 436.960938 342.820312 435.667969 348.855469 C 434.371094 354.894531 433.183594 360.734375 432.238281 365.726562 C 431.292969 370.71875 430.699219 374.355469 430.535156 376.027344 C 430.367188 377.703125 430.3125 378.59375 430.261719 379.472656 C 430.207031 380.351562 430.160156 381.226562 430.117188 382.089844 C 430.074219 382.953125 430.035156 383.804688 430 384.652344 C 429.964844 385.5 429.933594 386.335938 429.921875 386.972656 C 429.90625 387.605469 429.914062 388.019531 429.953125 388.40625 C 429.988281 388.789062 430.058594 389.15625 430.1875 389.527344 C 430.316406 389.898438 430.550781 390.289062 430.984375 390.640625 C 431.417969 390.996094 432.015625 391.160156 432.261719 391.210938 C 432.503906 391.265625 433.515625 391.121094 434.230469 390.679688 C 434.945312 390.242188 435.613281 389.628906 436.335938 388.816406 C 437.0625 388.007812 437.875 386.992188 438.789062 385.757812 C 439.703125 384.519531 440.730469 383.070312 441.589844 381.796875 C 442.453125 380.527344 443.066406 379.519531 443.667969 378.421875 C 444.269531 377.324219 444.859375 376.132812 445.4375 374.847656 C 446.015625 373.558594 446.582031 372.175781 447.132812 370.695312 C 447.6875 369.214844 448.21875 367.628906 448.484375 366.792969 C 448.753906 365.953125 448.753906 365.953125 448.726562 365.992188 C 448.703125 366.027344 448.644531 366.097656 448.539062 366.175781 C 448.433594 366.253906 448.289062 366.320312 448.128906 366.351562 C 447.96875 366.382812 447.820312 366.378906 448.082031 366.367188 C 448.347656 366.359375 447.796875 366.304688 447.652344 366.226562 C 447.503906 366.152344 447.554688 366.203125 447.679688 366.367188 C 447.804688 366.535156 447.972656 366.808594 448.171875 367.179688 C 448.375 367.550781 448.59375 368.015625 449.351562 369.816406 C 450.109375 371.617188 451.335938 374.515625 452.488281 377.140625 C 453.640625 379.769531 454.710938 382.128906 455.691406 384.230469 C 456.671875 386.332031 457.5625 388.171875 458.355469 389.761719 C 459.152344 391.347656 459.859375 392.683594 460.433594 393.695312 C 461.003906 394.707031 461.503906 395.476562 462.011719 396.121094 C 462.523438 396.769531 463.078125 397.296875 463.769531 397.675781 C 464.460938 398.058594 465.34375 398.164062 466.167969 397.851562 C 466.996094 397.535156 467.578125 396.957031 468.867188 394.34375 C 470.15625 391.726562 471.71875 386.429688 472.648438 380.394531 C 473.578125 374.359375 474.027344 367.933594 474.1875 361.585938 C 474.34375 355.238281 474.488281 349.34375 474.628906 344.398438 C 474.773438 339.449219 474.839844 335.882812 474.914062 333.992188 C 474.988281 332.097656 471.511719 331.636719 471.339844 332.921875 C 471.339844 332.921875 470.640625 335.554688 470.566406 339.78125 C 470.496094 344.011719 470.691406 349.359375 470.75 355.390625 C 470.808594 361.421875 470.609375 367.761719 470.050781 373.917969 C 469.496094 380.078125 468.453125 385.652344 466.773438 390.1875 C 465.097656 394.722656 464.996094 394.851562 465 394.867188 C 465.007812 394.882812 465.203125 394.84375 465.277344 394.847656 C 465.355469 394.855469 465.199219 394.742188 464.910156 394.429688 C 464.617188 394.113281 464.242188 393.601562 463.820312 392.910156 C 463.394531 392.21875 462.78125 391.105469 462.066406 389.730469 C 461.347656 388.351562 460.527344 386.71875 459.621094 384.820312 C 458.710938 382.921875 457.714844 380.757812 456.628906 378.332031 C 455.542969 375.902344 454.371094 373.210938 453.113281 370.242188 C 451.855469 367.277344 451.589844 366.664062 451.324219 366.125 C 451.058594 365.585938 450.796875 365.125 450.535156 364.734375 C 450.273438 364.34375 450 364.011719 449.667969 363.71875 C 449.332031 363.425781 448.8125 363.175781 448.367188 363.152344 C 447.921875 363.125 448.167969 363.109375 447.832031 363.125 C 447.492188 363.140625 447.15625 363.234375 446.859375 363.398438 C 446.558594 363.5625 446.316406 363.773438 446.132812 364.011719 C 445.945312 364.25 445.804688 364.5 445.707031 364.742188 C 445.609375 364.988281 445.09375 366.597656 444.566406 368.085938 C 444.042969 369.574219 443.511719 370.960938 442.972656 372.242188 C 442.429688 373.523438 441.882812 374.707031 441.328125 375.785156 C 440.777344 376.867188 440.21875 377.847656 439.660156 378.730469 C 439.101562 379.613281 438.019531 381.179688 437.058594 382.511719 C 436.09375 383.847656 435.253906 384.953125 434.546875 385.8125 C 433.835938 386.671875 433.265625 387.277344 432.878906 387.609375 C 432.496094 387.941406 432.421875 387.984375 432.574219 387.9375 C 432.722656 387.890625 432.402344 387.859375 432.734375 388.003906 C 433.066406 388.144531 433.234375 388.328125 433.277344 388.398438 C 433.320312 388.46875 433.304688 388.417969 433.285156 388.261719 C 433.265625 388.109375 433.25 387.875 433.25 387.5625 C 433.246094 387.25 433.269531 386.441406 433.300781 385.617188 C 433.332031 384.792969 433.367188 383.960938 433.410156 383.113281 C 433.453125 382.269531 433.503906 381.410156 433.554688 380.542969 C 433.609375 379.675781 433.660156 378.796875 433.710938 377.9375 C 433.765625 377.082031 434.035156 374.839844 434.753906 370.785156 C 435.46875 366.730469 436.523438 361.40625 437.785156 355.492188 C 439.046875 349.578125 440.40625 343.601562 441.84375 338.265625 C 443.277344 332.933594 444.488281 328.738281 444.742188 327.195312 C 445.351562 324.75 441.636719 324.324219 441.992188 323.425781 Z M 441.992188 323.425781 " fill-opacity="1" fill-rule="nonzero"/></g></g></g><g clip-path="url(#818f5a0672)"><g clip-path="url(#3e75528ac3)"><g clip-path="url(#032c9d6936)"><path fill="#e2dbd2" d="M 494.394531 328.621094 C 494.269531 329.421875 494.449219 331.066406 494.800781 332.847656 C 495.15625 334.625 495.617188 336.546875 496.167969 338.613281 C 496.714844 340.683594 497.328125 342.90625 497.996094 345.285156 C 498.667969 347.664062 499.375 350.203125 499.980469 352.433594 C 500.582031 354.660156 501.128906 356.644531 501.746094 358.890625 C 502.367188 361.136719 503.066406 363.652344 503.839844 366.429688 C 504.613281 369.210938 505.46875 372.253906 506.40625 375.5625 C 507.339844 378.871094 508.351562 382.445312 509.070312 384.945312 C 509.785156 387.445312 510.125 388.59375 510.4375 389.589844 C 510.746094 390.589844 511.023438 391.4375 511.269531 392.136719 C 511.515625 392.839844 511.730469 393.402344 511.9375 393.851562 C 512.144531 394.304688 512.40625 394.714844 512.726562 395.035156 C 513.046875 395.351562 513.566406 395.695312 514.308594 395.820312 C 515.046875 395.945312 515.792969 395.683594 516.261719 395.246094 C 516.726562 394.804688 517.019531 394.328125 517.242188 393.796875 C 517.464844 393.269531 517.660156 392.667969 517.820312 392.023438 C 517.984375 391.375 518.125 390.539062 518.289062 389.332031 C 518.453125 388.125 518.640625 386.527344 518.855469 384.527344 C 519.066406 382.53125 519.304688 380.128906 519.574219 377.328125 C 519.839844 374.523438 520.132812 371.316406 520.304688 369.417969 C 520.476562 367.515625 520.519531 367.253906 520.570312 367.070312 C 520.621094 366.886719 520.664062 366.796875 520.664062 366.789062 C 520.664062 366.785156 520.59375 366.847656 520.441406 366.917969 C 520.289062 366.984375 520.105469 367.007812 520.191406 367.007812 C 520.277344 367.011719 520.128906 366.980469 520.183594 367.011719 C 520.238281 367.042969 520.417969 367.167969 520.675781 367.382812 C 520.9375 367.597656 521.261719 367.898438 521.636719 368.285156 C 522.011719 368.667969 522.4375 369.136719 526.5 374.574219 C 530.5625 380.011719 538.316406 390.457031 538.71875 390.96875 C 539.121094 391.484375 539.492188 391.917969 539.835938 392.289062 C 540.183594 392.65625 540.519531 392.964844 540.886719 393.226562 C 541.253906 393.484375 541.738281 393.691406 542.472656 393.644531 C 543.207031 393.601562 544.074219 392.796875 544.359375 391.601562 C 544.648438 390.40625 544.597656 388.773438 544.3125 386.582031 C 544.027344 384.390625 543.507812 381.589844 542.765625 378.160156 C 542.023438 374.734375 541.054688 370.667969 539.847656 365.96875 C 538.640625 361.265625 537.210938 355.910156 536.199219 352.75 C 535.191406 349.59375 533.785156 345.683594 532.128906 341.402344 C 530.476562 337.121094 528.757812 332.742188 527.109375 328.652344 C 525.460938 324.5625 523.914062 321.09375 522.648438 319.109375 C 521.382812 317.128906 518.269531 318.742188 518.980469 320.117188 C 518.980469 320.117188 520.015625 323.023438 521.761719 326.542969 C 523.511719 330.066406 525.40625 334.152344 527.191406 338.441406 C 528.972656 342.730469 530.5625 346.882812 531.835938 350.488281 C 533.109375 354.09375 533.9375 356.832031 535.300781 361.925781 C 536.667969 367.019531 537.796875 371.472656 538.691406 375.277344 C 539.585938 379.082031 540.25 382.234375 540.675781 384.722656 C 541.097656 387.210938 541.285156 389.011719 541.273438 390.027344 C 541.257812 391.039062 541.148438 391.238281 541.75 390.855469 C 542.351562 390.472656 542.695312 390.519531 542.742188 390.535156 C 542.789062 390.550781 542.667969 390.457031 542.460938 390.253906 C 542.253906 390.050781 541.980469 389.75 541.65625 389.355469 C 541.332031 388.960938 540.96875 388.488281 533.210938 378.042969 C 525.453125 367.59375 524.886719 366.945312 524.429688 366.453125 C 523.976562 365.964844 523.554688 365.539062 523.160156 365.179688 C 522.765625 364.816406 522.386719 364.519531 522 364.273438 C 521.613281 364.03125 521.167969 363.84375 520.761719 363.785156 C 520.351562 363.722656 520.101562 363.703125 519.578125 363.820312 C 519.054688 363.9375 518.609375 364.207031 518.277344 364.558594 C 517.949219 364.910156 517.71875 365.300781 517.558594 365.71875 C 517.394531 366.132812 517.285156 366.582031 517.21875 367.0625 C 517.148438 367.542969 516.839844 371.019531 516.558594 374.085938 C 516.277344 377.148438 516.019531 379.804688 515.78125 382.054688 C 515.546875 384.304688 515.34375 386.148438 515.167969 387.582031 C 514.992188 389.015625 514.84375 390.035156 514.738281 390.601562 C 514.632812 391.167969 514.480469 391.699219 514.332031 392.109375 C 514.1875 392.519531 514.070312 392.769531 514.035156 392.828125 C 514.003906 392.886719 514.160156 392.769531 514.519531 392.714844 C 514.878906 392.660156 515.105469 392.734375 515.054688 392.675781 C 515.003906 392.613281 515.074219 392.710938 515.023438 392.605469 C 514.972656 392.5 514.824219 392.148438 514.628906 391.617188 C 514.429688 391.085938 514.191406 390.382812 513.917969 389.519531 C 513.644531 388.65625 513.339844 387.632812 512.996094 386.453125 C 512.652344 385.273438 511.59375 381.523438 510.617188 378.042969 C 509.636719 374.558594 508.738281 371.339844 507.921875 368.386719 C 507.105469 365.429688 506.367188 362.742188 505.707031 360.316406 C 505.046875 357.894531 504.46875 355.734375 503.960938 353.84375 C 503.449219 351.953125 502.75 349.308594 502.15625 346.816406 C 501.558594 344.324219 501.046875 341.988281 500.597656 339.8125 C 500.148438 337.636719 499.765625 335.625 499.410156 333.785156 C 499.058594 331.945312 498.714844 330.277344 498.398438 329.535156 C 497.964844 328.050781 494.515625 329.363281 494.394531 328.621094 Z M 494.394531 328.621094 " fill-opacity="1" fill-rule="nonzero"/></g></g></g><g clip-path="url(#58557e275b)"><g clip-path="url(#44d5117283)"><g clip-path="url(#5753adff28)"><path fill="#e2dbd2" d="M 433.738281 316.457031 C 433.191406 316.519531 431.296875 317.296875 428.441406 318.734375 C 425.582031 320.175781 421.996094 322.015625 418 323.972656 C 414.003906 325.929688 409.84375 327.757812 405.929688 329.359375 C 402.015625 330.960938 398.644531 332.171875 398.269531 333.046875 C 397.898438 333.917969 398.035156 332.136719 398.488281 328.941406 C 398.941406 325.75 399.597656 321.710938 400.3125 317.425781 C 401.027344 313.140625 401.699219 309.078125 402.183594 305.804688 C 402.667969 302.53125 402.851562 300.414062 397.695312 299.890625 C 392.539062 299.363281 385.707031 300.535156 380.660156 301.3125 C 375.617188 302.09375 372.117188 302.542969 369.871094 302.753906 C 367.625 302.964844 366.40625 303.003906 365.972656 302.976562 C 365.539062 302.953125 365.742188 303.011719 366.15625 303.441406 C 366.566406 303.871094 367.019531 302.445312 368.261719 299.835938 C 369.503906 297.226562 371.253906 293.972656 373.183594 290.550781 C 375.117188 287.125 376.972656 283.871094 378.441406 281.210938 C 379.914062 278.546875 380.777344 276.726562 380.496094 274.984375 C 380.210938 273.238281 378.449219 271.582031 375.65625 269.554688 C 372.863281 267.527344 369.363281 265.203125 365.65625 262.824219 C 361.949219 260.449219 358.457031 258.222656 355.71875 256.414062 C 352.980469 254.609375 351.496094 253.492188 351.484375 254.109375 C 351.476562 254.726562 352.910156 253.726562 355.546875 252.132812 C 358.179688 250.539062 361.558594 248.585938 365.1875 246.492188 C 368.816406 244.402344 372.316406 242.335938 375.226562 240.496094 C 378.136719 238.660156 380.132812 237.167969 381.125 235.4375 C 382.113281 233.710938 382.265625 231.464844 381.890625 228.792969 C 381.515625 226.121094 380.707031 223.035156 379.539062 219.605469 C 378.371094 216.179688 376.890625 212.492188 375.164062 208.652344 C 373.4375 204.8125 371.515625 200.910156 370.191406 200.132812 C 368.871094 199.355469 370.773438 199.371094 374.085938 199.515625 C 377.398438 199.65625 381.578125 199.871094 386.007812 200.082031 C 390.433594 200.292969 394.625 200.445312 398 200.464844 C 401.375 200.484375 403.578125 200.300781 404.71875 198.972656 C 405.859375 197.644531 405.738281 195.65625 405.308594 192.667969 C 404.875 189.675781 404.253906 185.984375 403.574219 182.085938 C 402.890625 178.191406 402.265625 174.507812 401.835938 171.582031 C 401.402344 168.65625 401.277344 167.007812 400.898438 167.441406 C 400.523438 167.878906 402.621094 168.324219 406.15625 169.277344 C 409.6875 170.230469 414.082031 171.507812 418.710938 172.890625 C 423.34375 174.273438 427.710938 175.589844 431.203125 176.625 C 434.699219 177.660156 436.859375 178.253906 439.265625 174.453125 C 441.671875 170.652344 443.371094 165.148438 444.707031 161.121094 C 446.042969 157.09375 447.050781 154.339844 447.765625 152.613281 C 448.480469 150.882812 448.929688 149.992188 449.101562 149.71875 C 449.277344 149.445312 449.101562 149.605469 448.4375 149.773438 C 447.773438 149.941406 448.988281 151.128906 450.960938 153.1875 C 452.933594 155.246094 455.378906 157.835938 457.984375 160.566406 C 460.585938 163.292969 463.105469 165.855469 465.257812 167.875 C 467.410156 169.898438 469.066406 171.144531 470.957031 170.757812 C 472.847656 170.375 474.269531 168.453125 476.179688 165.46875 C 478.09375 162.484375 480.351562 158.796875 482.707031 154.925781 C 485.058594 151.058594 487.304688 147.4375 489.171875 144.625 C 491.039062 141.808594 492.238281 140.316406 492.324219 140.453125 C 492.410156 140.585938 493.6875 142 495.210938 144.71875 C 496.734375 147.4375 498.28125 150.945312 499.730469 154.675781 C 501.179688 158.40625 502.472656 161.925781 503.535156 164.726562 C 504.597656 167.53125 505.445312 169.316406 508.335938 169.546875 C 511.222656 169.777344 515.304688 168.757812 519.964844 167.609375 C 524.621094 166.460938 529.546875 165.335938 534.339844 164.417969 C 539.132812 163.5 543.460938 162.9375 546.863281 162.910156 C 550.265625 162.878906 552.269531 163.40625 552.84375 164.320312 C 553.417969 165.234375 553.265625 167.453125 552.324219 170.65625 C 551.382812 173.863281 549.882812 177.605469 548.167969 181.46875 C 546.453125 185.332031 544.800781 189.015625 543.554688 192.1875 C 542.308594 195.363281 541.742188 197.894531 542.726562 199.953125 C 543.710938 202.007812 546.230469 203.71875 549.914062 205.753906 C 553.597656 207.792969 558.039062 210.046875 562.644531 212.308594 C 567.253906 214.570312 571.550781 216.675781 574.921875 218.394531 C 578.289062 220.113281 580.167969 221.222656 580.175781 221.042969 C 580.183594 220.859375 579.84375 221.792969 579.023438 223.417969 C 578.203125 225.042969 576.957031 227.191406 575.34375 229.742188 C 573.726562 232.292969 571.789062 235.167969 569.570312 238.261719 C 567.351562 241.359375 564.898438 244.601562 563.371094 246.550781 C 561.84375 248.496094 561.425781 249.105469 561.074219 249.714844 C 560.71875 250.324219 560.429688 250.929688 560.191406 251.527344 C 559.957031 252.128906 559.773438 252.71875 559.636719 253.292969 C 559.5 253.867188 559.40625 254.425781 559.351562 255.003906 C 559.292969 255.582031 559.285156 256.21875 559.347656 256.882812 C 559.410156 257.550781 559.558594 258.234375 559.8125 258.921875 C 560.066406 259.609375 560.4375 260.28125 560.941406 260.910156 C 561.445312 261.539062 562.082031 262.105469 563.972656 263.3125 C 565.863281 264.515625 568.636719 266.25 570.976562 267.730469 C 573.316406 269.210938 575.210938 270.449219 576.640625 271.449219 C 578.070312 272.449219 579.007812 273.199219 579.375 273.570312 C 579.742188 273.9375 579.671875 273.359375 579.59375 273.382812 C 579.519531 273.40625 578.476562 274.332031 576.386719 275.859375 C 574.296875 277.390625 571.585938 279.234375 568.6875 281.132812 C 565.785156 283.03125 563.035156 284.792969 560.851562 286.167969 C 558.667969 287.542969 557.382812 288.339844 556.789062 289.871094 C 556.195312 291.402344 557.269531 292.878906 558.972656 294.351562 C 560.671875 295.824219 562.835938 297.554688 565.085938 299.476562 C 567.339844 301.398438 569.351562 303.40625 570.699219 305.300781 C 572.046875 307.199219 572.484375 308.726562 571.867188 309.511719 C 571.25 310.300781 568.71875 311.152344 565.054688 311.652344 C 561.390625 312.152344 556.996094 312.289062 552.3125 312.066406 C 547.632812 311.839844 543.011719 311.234375 538.875 310.410156 C 534.738281 309.589844 531.398438 308.761719 529.320312 308.199219 C 527.238281 307.632812 526.03125 310.925781 527.410156 311.433594 C 527.410156 311.433594 530.144531 312.832031 534.054688 313.691406 C 537.964844 314.546875 542.535156 315.070312 547.371094 315.371094 C 552.210938 315.671875 557.015625 315.765625 561.425781 315.488281 C 565.835938 315.210938 569.574219 314.503906 572.472656 313.03125 C 575.375 311.558594 575.933594 308.464844 574.863281 305.925781 C 573.796875 303.386719 571.898438 301.082031 569.621094 298.945312 C 567.34375 296.808594 565.003906 294.882812 563.011719 293.273438 C 561.023438 291.664062 559.761719 290.511719 559.542969 290.71875 C 559.320312 290.929688 559.195312 291.253906 560.816406 290.238281 C 562.433594 289.222656 564.875 287.679688 567.722656 285.84375 C 570.566406 284.007812 573.488281 282.070312 576.082031 280.269531 C 578.671875 278.464844 580.628906 276.972656 581.613281 275.894531 C 582.597656 274.8125 583.042969 273.839844 582.574219 272.648438 C 582.105469 271.453125 581.238281 270.621094 579.992188 269.679688 C 578.75 268.734375 577.097656 267.613281 575.019531 266.273438 C 572.941406 264.933594 570.441406 263.367188 567.527344 261.554688 C 564.613281 259.742188 564.179688 259.441406 563.859375 259.125 C 563.542969 258.808594 563.304688 258.472656 563.128906 258.113281 C 562.953125 257.753906 562.835938 257.367188 562.765625 256.964844 C 562.695312 256.5625 562.671875 256.148438 562.691406 255.730469 C 562.710938 255.316406 562.761719 254.917969 562.839844 254.5 C 562.921875 254.078125 563.03125 253.648438 563.179688 253.207031 C 563.328125 252.769531 563.515625 252.320312 563.746094 251.863281 C 563.980469 251.40625 564.261719 250.945312 564.609375 250.46875 C 564.953125 249.992188 567.566406 246.664062 569.980469 243.414062 C 572.398438 240.164062 574.566406 237.078125 576.433594 234.25 C 578.304688 231.421875 579.84375 228.921875 581.007812 226.828125 C 582.171875 224.734375 582.9375 223.09375 583.171875 221.46875 C 583.410156 219.84375 582.066406 218.457031 579.453125 217.011719 C 576.839844 215.5625 573.039062 213.664062 568.59375 211.496094 C 564.148438 209.324219 559.535156 207.050781 555.367188 204.894531 C 551.203125 202.734375 547.988281 200.878906 546.515625 199.804688 C 545.042969 198.730469 545.0625 198.214844 545.773438 195.914062 C 546.480469 193.613281 547.855469 190.34375 549.542969 186.582031 C 551.226562 182.824219 552.945312 178.886719 554.34375 175.117188 C 555.742188 171.347656 556.546875 167.976562 556.21875 165.105469 C 555.890625 162.238281 553.703125 160.410156 550.460938 159.902344 C 547.21875 159.394531 543.140625 159.632812 538.476562 160.347656 C 533.8125 161.0625 528.839844 162.097656 523.9375 163.257812 C 519.03125 164.421875 514.503906 165.550781 510.871094 166.449219 C 507.242188 167.347656 508.285156 167.632812 507.496094 165.746094 C 506.707031 163.859375 505.574219 160.785156 504.210938 157.132812 C 502.851562 153.476562 501.324219 149.667969 499.695312 146.210938 C 498.0625 142.753906 496.332031 140.023438 494.152344 138.480469 C 491.972656 136.941406 489.871094 138.011719 488.230469 140.230469 C 486.585938 142.449219 484.511719 145.675781 482.199219 149.4375 C 479.886719 153.199219 477.535156 157.082031 475.402344 160.539062 C 473.265625 164 471.566406 166.585938 470.96875 167.523438 C 470.375 168.457031 470.777344 168.335938 469.222656 167.023438 C 467.667969 165.707031 465.425781 163.527344 462.886719 160.914062 C 460.347656 158.300781 457.765625 155.578125 455.449219 153.132812 C 453.136719 150.683594 451.320312 148.8125 450.242188 147.847656 C 449.164062 146.886719 447.269531 146.875 446.867188 147.296875 C 446.464844 147.71875 446.035156 148.433594 445.429688 149.738281 C 444.820312 151.046875 443.976562 153.175781 442.839844 156.398438 C 441.703125 159.625 440.230469 164.15625 438.417969 170.15625 C 436.605469 176.152344 437.65625 175.050781 435.085938 174.316406 C 432.515625 173.582031 428.660156 172.425781 424.160156 171.074219 C 419.664062 169.71875 415.015625 168.339844 410.828125 167.144531 C 406.640625 165.953125 403.390625 165.113281 401.125 164.972656 C 398.855469 164.835938 397.972656 167.003906 398.230469 169.367188 C 398.484375 171.734375 399.007812 175.042969 399.664062 178.847656 C 400.320312 182.652344 400.996094 186.542969 401.558594 189.988281 C 402.121094 193.4375 402.453125 195.996094 402.625 196.628906 C 402.800781 197.265625 403 197.046875 400.683594 197.128906 C 398.371094 197.210938 394.722656 197.132812 390.445312 196.953125 C 386.164062 196.773438 381.746094 196.554688 377.800781 196.359375 C 373.855469 196.164062 370.859375 196.054688 368.652344 197.171875 C 366.445312 198.289062 368.550781 202.40625 370.378906 206.230469 C 372.207031 210.050781 373.816406 213.777344 375.15625 217.28125 C 376.492188 220.785156 377.503906 223.964844 378.121094 226.683594 C 378.738281 229.40625 378.925781 231.527344 378.738281 232.796875 C 378.546875 234.0625 377.964844 234.628906 375.832031 236.101562 C 373.699219 237.574219 370.597656 239.46875 367.046875 241.539062 C 363.492188 243.605469 359.882812 245.679688 356.6875 247.546875 C 353.492188 249.414062 351.074219 250.917969 349.613281 252.484375 C 348.152344 254.050781 349.292969 256.023438 351.414062 257.535156 C 353.535156 259.046875 356.632812 261.058594 360.234375 263.351562 C 363.835938 265.648438 367.519531 268.023438 370.742188 270.21875 C 373.96875 272.410156 376.285156 274.183594 377.007812 274.875 C 377.730469 275.5625 377.632812 275.464844 376.640625 277.394531 C 375.644531 279.324219 374.023438 282.199219 372.121094 285.542969 C 370.214844 288.882812 368.28125 292.339844 366.625 295.496094 C 364.972656 298.65625 363.839844 301.21875 363.578125 303 C 363.316406 304.785156 364.3125 306.105469 364.90625 306.242188 C 365.496094 306.378906 366.433594 306.410156 368.121094 306.3125 C 369.808594 306.214844 372.519531 305.925781 376.570312 305.367188 C 380.625 304.808594 386.269531 303.910156 393.722656 302.597656 C 401.175781 301.28125 399.417969 300.320312 399.136719 302.640625 C 398.859375 304.964844 398.300781 308.53125 397.605469 312.695312 C 396.90625 316.855469 396.183594 321.144531 395.574219 324.980469 C 394.964844 328.820312 394.582031 331.765625 395.460938 334.101562 C 396.339844 336.4375 399.742188 335.46875 403.429688 334.082031 C 407.117188 332.691406 411.222656 330.964844 415.425781 329.140625 C 419.628906 327.316406 423.671875 325.578125 427.152344 324.027344 C 430.636719 322.476562 433.234375 321.175781 434.09375 320.539062 C 435.433594 319.644531 433.261719 316.710938 433.738281 316.457031 Z M 433.738281 316.457031 " fill-opacity="1" fill-rule="nonzero"/></g></g></g><g clip-path="url(#2e102fe0be)"><g clip-path="url(#614bac1f58)"><g clip-path="url(#36689d1362)"><path fill="#e2dbd2" d="M 370.433594 201.386719 C 370.648438 201.554688 371.835938 202.132812 373.992188 203.3125 C 376.152344 204.492188 379.175781 206.328125 382.941406 208.953125 C 386.707031 211.578125 391.152344 215.039062 395.039062 217.785156 C 398.921875 220.527344 400.335938 218.628906 397.792969 216.734375 C 397.792969 216.734375 392.847656 212.746094 388.445312 209.753906 C 384.046875 206.765625 380.585938 204.230469 377.859375 202.398438 C 375.136719 200.570312 373.09375 199.480469 372.136719 199.253906 C 370.734375 198.96875 370.886719 201.441406 370.433594 201.386719 Z M 370.433594 201.386719 " fill-opacity="1" fill-rule="nonzero"/></g></g></g><g clip-path="url(#01ce987288)"><g clip-path="url(#3d32ed69b1)"><g clip-path="url(#534f65bcac)"><path fill="#e2dbd2" d="M 401.257812 168.613281 C 400.8125 168.625 400.890625 168.789062 401.625 169.472656 C 402.363281 170.15625 403.570312 171.277344 405.191406 172.835938 C 406.8125 174.398438 408.820312 176.414062 410.371094 178.03125 C 411.921875 179.648438 412.78125 180.71875 413.757812 181.964844 C 414.738281 183.207031 415.8125 184.636719 416.988281 186.25 C 418.167969 187.863281 419.503906 189.617188 420.664062 190.949219 C 421.824219 192.285156 423.722656 190.871094 423.023438 189.925781 C 423.023438 189.925781 421.835938 187.871094 420.511719 186.164062 C 419.1875 184.457031 417.933594 182.957031 416.789062 181.628906 C 415.648438 180.300781 414.613281 179.140625 413.683594 178.167969 C 412.75 177.195312 410.636719 174.722656 408.847656 172.726562 C 407.058594 170.730469 405.609375 169.195312 404.453125 168.144531 C 403.300781 167.09375 402.390625 166.503906 401.648438 166.351562 C 400.777344 166.222656 401.382812 168.585938 401.257812 168.613281 Z M 401.257812 168.613281 " fill-opacity="1" fill-rule="nonzero"/></g></g></g><g clip-path="url(#f57c7ff79e)"><g clip-path="url(#c15067743e)"><g clip-path="url(#72f76254fe)"><path fill="#e2dbd2" d="M 447.457031 150.757812 C 447.414062 151.023438 447.453125 151.488281 447.507812 151.878906 C 447.558594 152.273438 447.613281 152.601562 447.65625 152.859375 C 447.703125 153.117188 447.734375 153.304688 447.777344 153.589844 C 447.824219 153.875 447.894531 154.304688 447.972656 154.761719 C 448.050781 155.21875 448.136719 155.710938 448.222656 156.230469 C 448.304688 156.753906 448.398438 157.308594 448.558594 158.363281 C 448.71875 159.417969 448.96875 161.082031 449.183594 162.957031 C 449.398438 164.828125 449.558594 166.90625 449.71875 169.183594 C 449.878906 171.460938 450.113281 173.929688 450.441406 175.871094 C 450.773438 177.808594 453.128906 177.582031 453 176.28125 C 453 176.28125 453.03125 173.648438 452.753906 171.242188 C 452.476562 168.835938 452.175781 166.632812 451.914062 164.625 C 451.652344 162.617188 451.496094 160.796875 451.355469 159.171875 C 451.214844 157.546875 451.160156 156.957031 451.105469 156.398438 C 451.050781 155.839844 450.988281 155.3125 450.929688 154.8125 C 450.871094 154.316406 450.808594 153.851562 450.742188 153.421875 C 450.675781 152.988281 450.640625 152.808594 450.59375 152.5625 C 450.542969 152.3125 450.476562 152.007812 450.378906 151.652344 C 450.28125 151.296875 450.152344 150.886719 450.019531 150.675781 C 449.832031 150.21875 447.511719 151.003906 447.457031 150.757812 Z M 447.457031 150.757812 " fill-opacity="1" fill-rule="nonzero"/></g></g></g><g clip-path="url(#d42c13c4b8)"><g clip-path="url(#4bf0098e1b)"><g clip-path="url(#5051581189)"><path fill="#e2dbd2" d="M 493.632812 141.035156 C 493.429688 141.410156 493.257812 142.132812 493.136719 142.785156 C 493.019531 143.4375 492.925781 144.015625 492.851562 144.511719 C 492.78125 145.011719 492.71875 145.425781 492.390625 147.542969 C 492.0625 149.660156 491.5 153.304688 490.898438 156.582031 C 490.300781 159.859375 489.699219 162.777344 489.191406 165.355469 C 488.679688 167.929688 488.351562 170.179688 488.246094 171.707031 C 488.140625 173.234375 490.480469 173.59375 490.632812 172.589844 C 490.632812 172.589844 491.191406 170.628906 491.5625 168.28125 C 491.933594 165.9375 492.304688 163.230469 492.742188 160.171875 C 493.175781 157.113281 493.894531 153.746094 494.699219 150.03125 C 495.503906 146.316406 495.585938 145.925781 495.671875 145.464844 C 495.757812 145.007812 495.847656 144.472656 495.933594 143.855469 C 496.019531 143.242188 496.085938 142.546875 496.035156 142.164062 C 496.042969 141.382812 493.574219 141.429688 493.632812 141.035156 Z M 493.632812 141.035156 " fill-opacity="1" fill-rule="nonzero"/></g></g></g><g clip-path="url(#f11166c30a)"><g clip-path="url(#0f6c28f5e2)"><g clip-path="url(#f01727c454)"><path fill="#e2dbd2" d="M 553.09375 163.484375 C 552.304688 163.570312 550.445312 164.601562 547.964844 166.625 C 545.488281 168.652344 542.261719 171.597656 538.160156 175.367188 C 534.058594 179.140625 529.011719 183.679688 525 187.71875 C 520.984375 191.753906 522.632812 193.453125 525.355469 190.808594 C 525.355469 190.808594 530.933594 185.675781 535.460938 181.21875 C 539.988281 176.765625 543.851562 173.394531 546.902344 170.980469 C 549.953125 168.566406 552.101562 167.050781 552.71875 166.515625 C 553.890625 165.785156 552.535156 163.675781 553.09375 163.484375 Z M 553.09375 163.484375 " fill-opacity="1" fill-rule="nonzero"/></g></g></g><g clip-path="url(#30eb6a30aa)"><g clip-path="url(#f0721731ad)"><g clip-path="url(#16838fb7b9)"><path fill="#e2dbd2" d="M 351.917969 254.292969 C 351.964844 254.316406 352.066406 254.339844 352.175781 254.359375 C 352.289062 254.382812 352.410156 254.410156 352.546875 254.433594 C 352.679688 254.460938 352.828125 254.488281 353.632812 254.636719 C 354.4375 254.78125 356.367188 255 358.90625 255.199219 C 361.441406 255.394531 364.589844 255.617188 368.328125 256.015625 C 372.070312 256.414062 376.417969 256.917969 380.003906 257.078125 C 383.589844 257.238281 383.785156 254.878906 381.40625 254.679688 C 381.40625 254.679688 376.667969 254.003906 372.507812 253.761719 C 368.351562 253.519531 364.820312 253.195312 361.910156 252.816406 C 359 252.4375 356.707031 252.109375 355.019531 251.902344 C 353.328125 251.695312 353.074219 251.679688 352.871094 251.683594 C 352.667969 251.6875 352.46875 251.703125 352.28125 251.726562 C 352.089844 251.753906 351.90625 251.789062 351.808594 251.828125 C 351.644531 251.871094 351.984375 254.285156 351.917969 254.292969 Z M 351.917969 254.292969 " fill-opacity="1" fill-rule="nonzero"/></g></g></g><g clip-path="url(#1a97ab0960)"><g clip-path="url(#1a7366e2bb)"><g clip-path="url(#d08fd6d75f)"><path fill="#e2dbd2" d="M 364.722656 304.511719 C 365.035156 304.539062 365.636719 304.441406 366.238281 304.277344 C 366.84375 304.117188 367.449219 303.910156 368.0625 303.664062 C 368.675781 303.417969 369.296875 303.140625 370.804688 302.363281 C 372.316406 301.582031 374.773438 300.3125 377.394531 299.003906 C 380.015625 297.695312 382.871094 296.511719 385.878906 295.277344 C 388.886719 294.042969 392.039062 292.742188 394.40625 291.558594 C 396.773438 290.375 395.835938 288.203125 394.21875 288.902344 C 394.21875 288.902344 390.863281 290.03125 387.8125 291.46875 C 384.761719 292.90625 381.871094 294.300781 379.101562 295.578125 C 376.335938 296.859375 373.6875 298.023438 371.199219 299.128906 C 368.707031 300.238281 368.136719 300.46875 367.558594 300.699219 C 366.980469 300.925781 366.421875 301.140625 365.882812 301.347656 C 365.34375 301.554688 364.824219 301.761719 364.59375 301.921875 C 364.09375 302.15625 364.992188 304.4375 364.722656 304.511719 Z M 364.722656 304.511719 " fill-opacity="1" fill-rule="nonzero"/></g></g></g><g clip-path="url(#6cd85aeedf)"><g clip-path="url(#0f6957efd0)"><g clip-path="url(#2327246335)"><path fill="#e2dbd2" d="M 582.796875 218.214844 C 582.691406 218.191406 582.480469 218.191406 582.25 218.203125 C 582.023438 218.214844 581.777344 218.242188 581.519531 218.285156 C 581.261719 218.324219 580.984375 218.375 579.695312 218.707031 C 578.402344 219.039062 576.347656 219.644531 574.628906 220.15625 C 572.90625 220.664062 571.519531 221.066406 570.460938 221.363281 C 569.402344 221.660156 568.683594 221.847656 568.230469 221.984375 C 567.777344 222.125 567.0625 222.21875 565.863281 222.445312 C 564.664062 222.671875 562.980469 222.96875 560.808594 223.347656 C 558.636719 223.722656 555.996094 224.226562 553.804688 224.816406 C 551.613281 225.40625 552.082031 227.726562 553.5625 227.425781 C 553.5625 227.425781 556.578125 227.113281 559.050781 226.558594 C 561.519531 226.003906 563.507812 225.53125 565.023438 225.164062 C 566.539062 224.800781 567.582031 224.546875 568.140625 224.375 C 568.703125 224.203125 569.222656 224.152344 570.085938 223.957031 C 570.949219 223.761719 572.140625 223.492188 573.671875 223.144531 C 575.203125 222.792969 577.066406 222.367188 579.257812 221.8125 C 581.449219 221.257812 581.707031 221.175781 581.941406 221.097656 C 582.179688 221.023438 582.394531 220.949219 582.585938 220.875 C 582.777344 220.804688 582.949219 220.738281 583.019531 220.6875 C 583.175781 220.621094 582.710938 218.230469 582.796875 218.214844 Z M 582.796875 218.214844 " fill-opacity="1" fill-rule="nonzero"/></g></g></g><g clip-path="url(#6df6918335)"><g clip-path="url(#eeb8d2df18)"><g clip-path="url(#90234591c8)"><path fill="#e2dbd2" d="M 577.886719 271.488281 C 577.523438 271.375 576.875 271.351562 576.324219 271.359375 C 575.777344 271.367188 575.324219 271.378906 574.972656 271.398438 C 574.621094 271.414062 574.371094 271.421875 574.125 271.429688 C 573.878906 271.4375 573.570312 271.449219 573.21875 271.457031 C 572.863281 271.464844 572.464844 271.46875 572.019531 271.472656 C 571.574219 271.476562 571.085938 271.480469 570.496094 271.480469 C 569.90625 271.476562 569.121094 271.453125 568.132812 271.347656 C 567.148438 271.238281 565.964844 271.105469 564.582031 270.949219 C 563.199219 270.792969 561.613281 270.695312 560.316406 270.679688 C 559.019531 270.660156 558.773438 273.015625 559.632812 273.105469 C 559.632812 273.105469 561.324219 273.519531 562.851562 273.6875 C 564.375 273.859375 565.710938 273.949219 566.859375 274.007812 C 568.003906 274.066406 568.957031 274.09375 569.714844 274.152344 C 570.472656 274.210938 571 274.246094 571.488281 274.273438 C 571.972656 274.304688 572.417969 274.328125 572.820312 274.339844 C 573.222656 274.355469 573.585938 274.359375 573.902344 274.363281 C 574.214844 274.367188 574.429688 274.367188 574.746094 274.359375 C 575.066406 274.351562 575.46875 274.332031 575.964844 274.292969 C 576.460938 274.253906 577.050781 274.183594 577.367188 274.0625 C 578.042969 273.917969 577.53125 271.511719 577.886719 271.488281 Z M 577.886719 271.488281 " fill-opacity="1" fill-rule="nonzero"/></g></g></g><g clip-path="url(#253392f442)"><g clip-path="url(#a4ea8eb931)"><g clip-path="url(#5e85ac2372)"><path fill="#e2dbd2" d="M 397.746094 331.21875 C 398.296875 331.085938 399.539062 330.34375 401.128906 329.132812 C 402.722656 327.921875 404.710938 326.277344 407.1875 324.3125 C 409.667969 322.351562 412.632812 320.054688 414.929688 317.964844 C 417.230469 315.875 415.722656 314.050781 414.128906 315.367188 C 414.128906 315.367188 410.761719 317.777344 408.082031 320.085938 C 405.402344 322.398438 403.054688 324.175781 401.15625 325.550781 C 399.257812 326.921875 397.851562 327.945312 397.390625 328.40625 C 396.5 329.125 398.171875 330.964844 397.746094 331.21875 Z M 397.746094 331.21875 " fill-opacity="1" fill-rule="nonzero"/></g></g></g><g clip-path="url(#880448c614)"><g clip-path="url(#0b018967fd)"><g clip-path="url(#f64305eb2d)"><path fill="#e2dbd2" d="M 572.386719 308.492188 C 571.730469 308.113281 570.402344 307.71875 569.167969 307.394531 C 567.933594 307.066406 566.804688 306.757812 565.789062 306.453125 C 564.773438 306.148438 563.867188 305.847656 563.148438 305.59375 C 562.433594 305.339844 561.605469 305.023438 560.367188 304.46875 C 559.132812 303.917969 557.503906 303.117188 555.480469 302.097656 C 553.453125 301.078125 551.003906 299.886719 548.890625 299.046875 C 546.78125 298.203125 545.765625 300.34375 547.132812 300.992188 C 547.132812 300.992188 549.746094 302.550781 552.101562 303.597656 C 554.460938 304.644531 556.417969 305.480469 557.96875 306.128906 C 559.515625 306.777344 560.636719 307.296875 561.359375 307.605469 C 562.082031 307.914062 562.925781 308.285156 563.90625 308.667969 C 564.882812 309.050781 565.964844 309.4375 567.152344 309.824219 C 568.34375 310.207031 569.644531 310.570312 570.367188 310.625 C 571.800781 310.855469 571.671875 308.3125 572.386719 308.492188 Z M 572.386719 308.492188 " fill-opacity="1" fill-rule="nonzero"/></g></g></g><g clip-path="url(#c6c5632e6b)"><g clip-path="url(#ae3b06cf92)"><g clip-path="url(#59a818fb13)"><path fill="#e2dbd2" d="M 464.925781 354.003906 C 464.902344 354.054688 464.875 354.183594 464.847656 354.34375 C 464.820312 354.5 464.789062 354.691406 464.765625 354.914062 C 464.742188 355.132812 464.71875 355.382812 464.675781 356.003906 C 464.632812 356.625 464.601562 357.539062 464.585938 358.351562 C 464.574219 359.164062 464.566406 359.867188 464.570312 360.46875 C 464.570312 361.066406 464.574219 361.5625 464.585938 362.589844 C 464.597656 363.621094 464.617188 365.101562 464.570312 366.367188 C 464.519531 367.628906 464.46875 368.675781 464.417969 369.507812 C 464.371094 370.339844 464.332031 370.949219 464.292969 371.660156 C 464.25 372.371094 464.207031 373.238281 464.179688 373.996094 C 464.15625 374.753906 464.160156 375.402344 464.191406 375.941406 C 464.222656 376.484375 464.285156 376.914062 464.28125 377.183594 C 464.28125 377.453125 466.640625 377.636719 466.652344 377.457031 C 466.652344 377.457031 466.71875 377.085938 466.832031 376.605469 C 466.941406 376.125 467.019531 375.539062 467.070312 374.84375 C 467.125 374.148438 467.152344 373.34375 467.164062 372.433594 C 467.175781 371.523438 467.183594 371.042969 467.179688 370.34375 C 467.175781 369.644531 467.164062 368.734375 467.152344 367.609375 C 467.140625 366.484375 467.144531 365.144531 467.214844 363.589844 C 467.285156 362.039062 467.308594 361.632812 467.339844 361.113281 C 467.375 360.589844 467.414062 359.960938 467.457031 359.226562 C 467.503906 358.488281 467.542969 357.644531 467.566406 356.691406 C 467.589844 355.738281 467.578125 355.445312 467.5625 355.1875 C 467.546875 354.929688 467.527344 354.699219 467.496094 354.492188 C 467.464844 354.289062 467.429688 354.109375 467.394531 354.019531 C 467.359375 353.867188 464.929688 354.066406 464.925781 354.003906 Z M 464.925781 354.003906 " fill-opacity="1" fill-rule="nonzero"/></g></g></g><g clip-path="url(#a8b7a508ba)"><g clip-path="url(#7eaec0b311)"><g clip-path="url(#0a3a8b0b75)"><path fill="#e2dbd2" d="M 526.109375 344.9375 C 526.148438 345.445312 526.445312 346.328125 526.769531 347.152344 C 527.089844 347.972656 527.398438 348.75 527.6875 349.484375 C 527.972656 350.222656 528.234375 350.917969 528.386719 351.34375 C 528.542969 351.765625 528.671875 352.132812 528.925781 352.917969 C 529.179688 353.707031 529.554688 354.894531 530.003906 356.488281 C 530.457031 358.082031 530.949219 360.089844 531.480469 361.769531 C 532.011719 363.445312 534.292969 362.8125 533.980469 361.683594 C 533.980469 361.683594 533.484375 359.390625 532.921875 357.539062 C 532.359375 355.6875 531.988281 354.207031 531.714844 353.125 C 531.441406 352.042969 531.257812 351.351562 531.171875 351.058594 C 531.082031 350.765625 530.886719 350.058594 530.644531 349.289062 C 530.40625 348.523438 530.136719 347.722656 529.820312 346.894531 C 529.503906 346.0625 529.132812 345.210938 528.835938 344.8125 C 528.34375 343.964844 526.304688 345.382812 526.109375 344.9375 Z M 526.109375 344.9375 " fill-opacity="1" fill-rule="nonzero"/></g></g></g><g clip-path="url(#f9c1437322)"><g clip-path="url(#7563c17eed)"><g clip-path="url(#e1b562245d)"><path fill="#e2dbd2" d="M 464.550781 196.964844 C 464.484375 197.011719 464.367188 197.128906 464.25 197.265625 C 464.128906 197.398438 464.007812 197.546875 463.882812 197.714844 C 463.757812 197.882812 463.628906 198.070312 463.171875 198.832031 C 462.714844 199.59375 461.996094 200.921875 461.308594 202.234375 C 460.621094 203.546875 459.890625 204.804688 459.144531 206.027344 C 458.398438 207.25 457.679688 208.457031 457.28125 209.433594 C 456.882812 210.410156 458.925781 211.601562 459.277344 211 C 459.277344 211 460.234375 209.945312 460.925781 208.699219 C 461.613281 207.457031 462.296875 206.179688 463.039062 204.90625 C 463.777344 203.632812 464.542969 202.34375 465.273438 201.007812 C 466 199.671875 466.085938 199.488281 466.171875 199.308594 C 466.257812 199.128906 466.328125 198.964844 466.390625 198.816406 C 466.449219 198.667969 466.503906 198.535156 466.507812 198.472656 C 466.550781 198.355469 464.515625 197.019531 464.550781 196.964844 Z M 464.550781 196.964844 " fill-opacity="1" fill-rule="nonzero"/></g></g></g><g clip-path="url(#0aa1b45e2f)"><g clip-path="url(#b4d6dc0495)"><g clip-path="url(#1f6d147b01)"><path fill="#e2dbd2" d="M 467.664062 247.933594 C 467.804688 247.96875 468.078125 247.96875 468.363281 247.953125 C 468.644531 247.9375 468.929688 247.90625 469.222656 247.855469 C 469.515625 247.808594 469.8125 247.746094 470.304688 247.617188 C 470.796875 247.484375 471.695312 247.222656 472.964844 246.835938 C 474.230469 246.445312 475.867188 245.9375 477.90625 245.4375 C 479.941406 244.9375 482.34375 244.304688 484.292969 243.628906 C 486.238281 242.957031 485.621094 240.671875 484.300781 241.03125 C 484.300781 241.03125 481.578125 241.46875 479.3125 242.125 C 477.046875 242.78125 475.15625 243.339844 473.609375 243.714844 C 472.066406 244.089844 470.898438 244.386719 470.113281 244.617188 C 469.328125 244.84375 469.082031 244.917969 468.832031 244.992188 C 468.582031 245.070312 468.339844 245.144531 468.105469 245.21875 C 467.875 245.292969 467.652344 245.371094 467.550781 245.4375 C 467.332031 245.519531 467.785156 247.914062 467.664062 247.933594 Z M 467.664062 247.933594 " fill-opacity="1" fill-rule="nonzero"/></g></g></g></svg>